# MagicaVoxel @ Ephtracy

# group
o 

# material
mtllib minikaya.mtl
usemtl palette

# normals
vn -1 0 0
vn 1 0 0
vn 0 0 1
vn 0 0 -1
vn 0 -1 0
vn 0 1 0

# texcoords
vt 0.751953 0.5
vt 0.830078 0.5
vt 0.849609 0.5
vt 0.853516 0.5
vt 0.888672 0.5
vt 0.900391 0.5
vt 0.904297 0.5
vt 0.935547 0.5
vt 0.958984 0.5
vt 0.966797 0.5
vt 0.978516 0.5
vt 0.982422 0.5

# verts
v -1 0 -0.6
v -1 0 -0.7
v -1 0.1 -0.5
v -1 0.1 -0.6
v -1 0.1 -0.7
v -1 0.1 -0.8
v -1 0.2 -0.5
v -1 0.2 -0.6
v -1 0.2 -0.7
v -1 0.2 -0.8
v -1 0.3 -0.6
v -1 0.3 -0.7
v -0.9 0 0.2
v -0.9 0 0
v -0.9 0 -0.2
v -0.9 0 -0.4
v -0.9 0.1 0.3
v -0.9 0.1 0.2
v -0.9 0.2 0.3
v -0.9 0.2 0.2
v -0.9 0.3 0.2
v -0.9 0.3 0
v -0.9 0.3 -0.2
v -0.9 0.3 -0.4
v -0.8 0 0.3
v -0.8 0 0.2
v -0.8 0.1 0.5
v -0.8 0.1 0.4
v -0.8 0.1 0.3
v -0.8 0.1 0.2
v -0.8 0.2 0.5
v -0.8 0.2 0.4
v -0.8 0.2 0.3
v -0.8 0.2 0.2
v -0.8 0.3 0.3
v -0.8 0.3 0.2
v -0.6 0 0.5
v -0.6 0 0.4
v -0.6 0 0.2
v -0.6 0.1 0.3
v -0.6 0.1 0.2
v -0.6 0.2 0.3
v -0.6 0.2 0.2
v -0.6 0.3 0.5
v -0.6 0.3 0.4
v -0.6 0.3 0.2
v -0.5 0 -0.1
v -0.5 0 -0.4
v -0.5 0.1 -0.1
v -0.5 0.1 -0.4
v -0.5 0.2 -0.1
v -0.5 0.3 -0.1
v -0.5 0.5 -0.1
v -0.5 0.5 -0.2
v -0.5 0.5 -0.3
v -0.5 0.5 -0.4
v -0.5 0.6 -0.1
v -0.5 0.6 -0.2
v -0.5 0.6 -0.3
v -0.5 0.6 -0.4
v -0.2 0 0.1
v -0.2 0 0
v -0.2 0 -0.1
v -0.2 0 -0.4
v -0.2 0 -0.5
v -0.2 0.1 -0.1
v -0.2 0.1 -0.4
v -0.2 0.1 -0.5
v -0.2 0.2 -0.5
v -0.2 0.3 0.1
v -0.2 0.3 0
v -0.2 0.3 -0.1
v -0.2 0.3 -0.4
v -0.2 0.3 -0.5
v -0.7 0 0.3
v -0.7 0 0.2
v -0.7 0.1 0.5
v -0.7 0.1 0.4
v -0.7 0.1 0.3
v -0.7 0.1 0.2
v -0.7 0.2 0.5
v -0.7 0.2 0.4
v -0.7 0.2 0.3
v -0.7 0.2 0.2
v -0.7 0.3 0.3
v -0.7 0.3 0.2
v -0.6 0 -0.1
v -0.6 0 -0.2
v -0.6 0 -0.4
v -0.6 0.1 -0.1
v -0.6 0.2 -0.1
v -0.6 0.3 -0.1
v -0.6 0.3 -0.2
v -0.6 0.3 -0.4
v -0.3 0 0.5
v -0.3 0 0.4
v -0.3 0 0
v -0.3 0 -0.1
v -0.3 0.1 -0.1
v -0.3 0.2 0.2
v -0.3 0.2 0.1
v -0.3 0.3 0.5
v -0.3 0.3 0.4
v -0.3 0.3 0.2
v -0.3 0.3 0.1
v -0.3 0.3 0
v -0.3 0.3 -0.1
v -0.2 0 -0.6
v -0.2 0 -0.7
v -0.2 0.1 -0.5
v -0.2 0.1 -0.6
v -0.2 0.1 -0.7
v -0.2 0.1 -0.8
v -0.2 0.2 -0.5
v -0.2 0.2 -0.6
v -0.2 0.2 -0.7
v -0.2 0.2 -0.8
v -0.2 0.3 -0.1
v -0.2 0.3 -0.4
v -0.2 0.3 -0.6
v -0.2 0.3 -0.7
v -0.2 0.5 -0.1
v -0.2 0.5 -0.4
v -0.2 0.6 -0.1
v -0.2 0.6 -0.4
v 0.1 0 0.1
v 0.1 0 0
v 0.1 0 -0.4
v 0.1 0 -0.5
v 0.1 0.1 0.1
v 0.1 0.1 0
v 0.1 0.1 -0.6
v 0.1 0.1 -0.7
v 0.1 0.2 0.1
v 0.1 0.2 0
v 0.1 0.2 -0.6
v 0.1 0.2 -0.7
v 0.1 0.3 0.1
v 0.1 0.3 0
v 0.1 0.3 -0.4
v 0.1 0.3 -0.5
v -0.8 0.1 0.5
v -0.8 0.2 0.5
v -0.7 0.1 0.5
v -0.7 0.2 0.5
v -0.6 0 0.5
v -0.6 0.3 0.5
v -0.3 0 0.5
v -0.3 0.3 0.5
v -0.9 0.1 0.3
v -0.9 0.2 0.3
v -0.8 0 0.3
v -0.8 0.1 0.3
v -0.8 0.2 0.3
v -0.8 0.3 0.3
v -0.7 0 0.3
v -0.7 0.1 0.3
v -0.7 0.2 0.3
v -0.7 0.3 0.3
v -0.6 0.1 0.3
v -0.6 0.2 0.3
v -0.9 0 0.2
v -0.9 0.1 0.2
v -0.9 0.2 0.2
v -0.9 0.3 0.2
v -0.8 0 0.2
v -0.8 0.1 0.2
v -0.8 0.2 0.2
v -0.8 0.3 0.2
v -0.7 0 0.2
v -0.7 0.1 0.2
v -0.7 0.2 0.2
v -0.7 0.3 0.2
v -0.6 0 0.2
v -0.6 0.1 0.2
v -0.6 0.2 0.2
v -0.6 0.3 0.2
v -0.2 0 0.1
v -0.2 0.3 0.1
v -0.0999999 0.1 0.1
v -0.0999999 0.2 0.1
v 0.1 0 0.1
v 0.1 0.1 0.1
v 0.1 0.2 0.1
v 0.1 0.3 0.1
v -0.5 0.3 -0.1
v -0.5 0.5 -0.1
v -0.5 0.6 -0.1
v -0.3 0 -0.1
v -0.3 0.1 -0.1
v -0.3 0.3 -0.1
v -0.2 0 -0.1
v -0.2 0.1 -0.1
v -0.2 0.3 -0.1
v -0.2 0.5 -0.1
v -0.2 0.6 -0.1
v -1 0.1 -0.5
v -1 0.2 -0.5
v -0.2 0.1 -0.5
v -0.2 0.2 -0.5
v -1 0 -0.6
v -1 0.1 -0.6
v -1 0.2 -0.6
v -1 0.3 -0.6
v -0.2 0 -0.6
v -0.2 0.1 -0.6
v -0.2 0.2 -0.6
v -0.2 0.3 -0.6
v 1.19209e-07 0.1 -0.6
v 1.19209e-07 0.2 -0.6
v 0.1 0.1 -0.6
v 0.1 0.2 -0.6
v -0.6 0 -0.1
v -0.6 0.1 -0.1
v -0.6 0.2 -0.1
v -0.6 0.3 -0.1
v -0.5 0 -0.1
v -0.5 0.1 -0.1
v -0.5 0.2 -0.1
v -0.5 0.3 -0.1
v -0.9 0 -0.4
v -0.9 0.3 -0.4
v -0.6 0 -0.4
v -0.6 0.3 -0.4
v -0.5 0 -0.4
v -0.5 0.1 -0.4
v -0.5 0.5 -0.4
v -0.5 0.6 -0.4
v -0.4 0.2 -0.4
v -0.4 0.4 -0.4
v -0.3 0.2 -0.4
v -0.3 0.4 -0.4
v -0.2 0 -0.4
v -0.2 0.1 -0.4
v -0.2 0.3 -0.4
v -0.2 0.5 -0.4
v -0.2 0.6 -0.4
v -0.2 0 -0.5
v -0.2 0.1 -0.5
v -0.2 0.2 -0.5
v -0.2 0.3 -0.5
v 0.1 0 -0.5
v 0.1 0.3 -0.5
v -1 0 -0.7
v -1 0.1 -0.7
v -1 0.2 -0.7
v -1 0.3 -0.7
v -0.2 0 -0.7
v -0.2 0.1 -0.7
v -0.2 0.2 -0.7
v -0.2 0.3 -0.7
v 1.19209e-07 0.1 -0.7
v 1.19209e-07 0.2 -0.7
v 0.1 0.1 -0.7
v 0.1 0.2 -0.7
v -1 0.1 -0.8
v -1 0.2 -0.8
v -0.2 0.1 -0.8
v -0.2 0.2 -0.8
v -0.6 0 0.5
v -0.3 0 0.5
v -0.6 0 0.4
v -0.3 0 0.4
v -0.8 0 0.3
v -0.7 0 0.3
v -0.9 0 0.2
v -0.8 0 0.2
v -0.7 0 0.2
v -0.6 0 0.2
v -0.2 0 0.1
v 0.1 0 0.1
v -0.9 0 0
v -0.6 0 0
v -0.3 0 0
v -0.2 0 0
v 0.1 0 0
v -0.6 0 -0.1
v -0.5 0 -0.1
v -0.3 0 -0.1
v -0.2 0 -0.1
v -0.9 0 -0.2
v -0.6 0 -0.2
v -0.9 0 -0.4
v -0.6 0 -0.4
v -0.5 0 -0.4
v -0.2 0 -0.4
v 0.1 0 -0.4
v -0.2 0 -0.5
v 0.1 0 -0.5
v -1 0 -0.6
v -0.2 0 -0.6
v -1 0 -0.7
v -0.2 0 -0.7
v -0.8 0.1 0.5
v -0.7 0.1 0.5
v -0.8 0.1 0.4
v -0.7 0.1 0.4
v -0.9 0.1 0.3
v -0.8 0.1 0.3
v -0.7 0.1 0.3
v -0.6 0.1 0.3
v -0.9 0.1 0.2
v -0.8 0.1 0.2
v -0.7 0.1 0.2
v -0.6 0.1 0.2
v -1 0.1 -0.5
v -0.2 0.1 -0.5
v -1 0.1 -0.6
v -0.2 0.1 -0.6
v 1.19209e-07 0.1 -0.6
v 0.1 0.1 -0.6
v -1 0.1 -0.7
v -0.2 0.1 -0.7
v 1.19209e-07 0.1 -0.7
v 0.1 0.1 -0.7
v -1 0.1 -0.8
v -0.2 0.1 -0.8
v -0.8 0.2 0.5
v -0.7 0.2 0.5
v -0.8 0.2 0.4
v -0.7 0.2 0.4
v -0.9 0.2 0.3
v -0.8 0.2 0.3
v -0.7 0.2 0.3
v -0.6 0.2 0.3
v -0.9 0.2 0.2
v -0.8 0.2 0.2
v -0.7 0.2 0.2
v -0.6 0.2 0.2
v -1 0.2 -0.5
v -0.2 0.2 -0.5
v -1 0.2 -0.6
v -0.2 0.2 -0.6
v 1.19209e-07 0.2 -0.6
v 0.1 0.2 -0.6
v -1 0.2 -0.7
v -0.2 0.2 -0.7
v 1.19209e-07 0.2 -0.7
v 0.1 0.2 -0.7
v -1 0.2 -0.8
v -0.2 0.2 -0.8
v -0.6 0.3 0.5
v -0.3 0.3 0.5
v -0.6 0.3 0.4
v -0.3 0.3 0.4
v -0.8 0.3 0.3
v -0.7 0.3 0.3
v -0.5 0.3 0.3
v -0.4 0.3 0.3
v -0.9 0.3 0.2
v -0.8 0.3 0.2
v -0.7 0.3 0.2
v -0.6 0.3 0.2
v -0.5 0.3 0.2
v -0.4 0.3 0.2
v -0.3 0.3 0.2
v -0.6 0.3 0.1
v -0.5 0.3 0.1
v -0.4 0.3 0.1
v -0.3 0.3 0.1
v -0.2 0.3 0.1
v 0.1 0.3 0.1
v -0.9 0.3 0
v -0.6 0.3 0
v -0.3 0.3 0
v -0.2 0.3 0
v 0.1 0.3 0
v -0.6 0.3 -0.1
v -0.5 0.3 -0.1
v -0.3 0.3 -0.1
v -0.2 0.3 -0.1
v -0.0999999 0.3 -0.1
v 1.19209e-07 0.3 -0.1
v -0.9 0.3 -0.2
v -0.6 0.3 -0.2
v -0.0999999 0.3 -0.2
v 1.19209e-07 0.3 -0.2
v -0.0999999 0.3 -0.3
v 1.19209e-07 0.3 -0.3
v -0.9 0.3 -0.4
v -0.6 0.3 -0.4
v -0.2 0.3 -0.4
v 0.1 0.3 -0.4
v -0.2 0.3 -0.5
v 0.1 0.3 -0.5
v -1 0.3 -0.6
v -0.2 0.3 -0.6
v -1 0.3 -0.7
v -0.2 0.3 -0.7
v -0.5 0.6 -0.1
v -0.2 0.6 -0.1
v -0.5 0.6 -0.2
v -0.3 0.6 -0.2
v -0.5 0.6 -0.3
v -0.3 0.6 -0.3
v -0.5 0.6 -0.4
v -0.2 0.6 -0.4

# faces
f 4/6/1 2/6/1 1/6/1
f 5/6/1 2/6/1 4/6/1
f 7/6/1 4/6/1 3/6/1
f 7/6/1 6/6/1 5/6/1
f 7/6/1 5/6/1 4/6/1
f 8/6/1 6/6/1 7/6/1
f 9/6/1 6/6/1 8/6/1
f 10/6/1 6/6/1 9/6/1
f 11/6/1 9/6/1 8/6/1
f 12/6/1 9/6/1 11/6/1
f 18/1/1 14/1/1 13/1/1
f 19/1/1 18/1/1 17/1/1
f 20/1/1 14/1/1 18/1/1
f 20/1/1 18/1/1 19/1/1
f 21/1/1 14/1/1 20/1/1
f 22/8/1 15/8/1 14/8/1
f 22/1/1 14/1/1 21/1/1
f 23/1/1 16/1/1 15/1/1
f 23/8/1 15/8/1 22/8/1
f 24/1/1 16/1/1 23/1/1
f 29/1/1 26/1/1 25/1/1
f 30/1/1 26/1/1 29/1/1
f 31/8/1 28/8/1 27/8/1
f 32/1/1 29/1/1 28/1/1
f 32/8/1 28/8/1 31/8/1
f 33/1/1 29/1/1 32/1/1
f 35/1/1 34/1/1 33/1/1
f 36/1/1 34/1/1 35/1/1
f 40/5/1 39/5/1 38/5/1
f 41/5/1 39/5/1 40/5/1
f 42/5/1 40/5/1 38/5/1
f 44/11/1 38/11/1 37/11/1
f 45/5/1 43/5/1 42/5/1
f 45/11/1 38/11/1 44/11/1
f 45/5/1 42/5/1 38/5/1
f 46/5/1 43/5/1 45/5/1
f 49/11/1 48/11/1 47/11/1
f 50/11/1 48/11/1 49/11/1
f 51/3/1 50/3/1 49/3/1
f 52/3/1 50/3/1 51/3/1
f 53/3/1 50/3/1 52/3/1
f 54/3/1 50/3/1 53/3/1
f 55/3/1 50/3/1 54/3/1
f 56/3/1 50/3/1 55/3/1
f 57/11/1 54/11/1 53/11/1
f 58/12/1 55/12/1 54/12/1
f 58/11/1 54/11/1 57/11/1
f 59/11/1 56/11/1 55/11/1
f 59/12/1 55/12/1 58/12/1
f 60/11/1 56/11/1 59/11/1
f 66/2/1 63/2/1 62/2/1
f 67/11/1 65/11/1 64/11/1
f 68/11/1 65/11/1 67/11/1
f 69/11/1 68/11/1 67/11/1
f 70/11/1 62/11/1 61/11/1
f 71/2/1 66/2/1 62/2/1
f 71/11/1 62/11/1 70/11/1
f 72/2/1 66/2/1 71/2/1
f 73/11/1 69/11/1 67/11/1
f 74/11/1 69/11/1 73/11/1
f 75/1/2 76/1/2 79/1/2
f 79/1/2 76/1/2 80/1/2
f 77/8/2 78/8/2 81/8/2
f 78/1/2 79/1/2 82/1/2
f 81/8/2 78/8/2 82/8/2
f 82/1/2 79/1/2 83/1/2
f 83/1/2 84/1/2 85/1/2
f 85/1/2 84/1/2 86/1/2
f 87/8/2 88/8/2 90/8/2
f 90/8/2 88/8/2 91/8/2
f 91/8/2 88/8/2 92/8/2
f 88/1/2 89/1/2 93/1/2
f 92/8/2 88/8/2 93/8/2
f 93/1/2 89/1/2 94/1/2
f 97/11/2 98/11/2 99/11/2
f 96/5/2 97/5/2 100/5/2
f 100/5/2 97/5/2 101/5/2
f 95/11/2 96/11/2 102/11/2
f 96/5/2 100/5/2 103/5/2
f 102/11/2 96/11/2 103/11/2
f 100/7/2 101/7/2 104/7/2
f 103/5/2 100/5/2 104/5/2
f 101/5/2 97/5/2 105/5/2
f 104/7/2 101/7/2 105/7/2
f 97/11/2 99/11/2 106/11/2
f 105/5/2 97/5/2 106/5/2
f 106/11/2 99/11/2 107/11/2
f 108/6/2 109/6/2 111/6/2
f 111/6/2 109/6/2 112/6/2
f 110/6/2 111/6/2 114/6/2
f 114/6/2 111/6/2 115/6/2
f 112/6/2 113/6/2 116/6/2
f 116/6/2 113/6/2 117/6/2
f 115/6/2 116/6/2 120/6/2
f 120/6/2 116/6/2 121/6/2
f 118/3/2 119/3/2 122/3/2
f 122/3/2 119/3/2 123/3/2
f 122/11/2 123/11/2 124/11/2
f 124/11/2 123/11/2 125/11/2
f 126/11/2 127/11/2 130/11/2
f 127/2/2 128/2/2 131/2/2
f 130/11/2 127/11/2 131/11/2
f 130/12/2 131/12/2 134/12/2
f 131/2/2 128/2/2 135/2/2
f 134/12/2 131/12/2 135/12/2
f 132/7/2 133/7/2 136/7/2
f 136/7/2 133/7/2 137/7/2
f 134/11/2 135/11/2 138/11/2
f 135/2/2 128/2/2 139/2/2
f 138/11/2 135/11/2 139/11/2
f 128/11/2 129/11/2 140/11/2
f 139/2/2 128/2/2 140/2/2
f 140/11/2 129/11/2 141/11/2
f 144/8/3 143/8/3 142/8/3
f 145/8/3 143/8/3 144/8/3
f 148/11/3 147/11/3 146/11/3
f 149/11/3 147/11/3 148/11/3
f 153/1/3 151/1/3 150/1/3
f 154/1/3 151/1/3 153/1/3
f 156/1/3 153/1/3 152/1/3
f 157/1/3 153/1/3 156/1/3
f 158/1/3 155/1/3 154/1/3
f 159/1/3 155/1/3 158/1/3
f 160/1/3 158/1/3 157/1/3
f 161/1/3 158/1/3 160/1/3
f 166/1/3 163/1/3 162/1/3
f 167/1/3 163/1/3 166/1/3
f 168/1/3 165/1/3 164/1/3
f 169/1/3 165/1/3 168/1/3
f 174/1/3 171/1/3 170/1/3
f 175/1/3 171/1/3 174/1/3
f 176/1/3 173/1/3 172/1/3
f 177/1/3 173/1/3 176/1/3
f 180/11/3 179/11/3 178/11/3
f 181/11/3 179/11/3 180/11/3
f 182/11/3 180/11/3 178/11/3
f 183/12/3 181/12/3 180/12/3
f 183/11/3 180/11/3 182/11/3
f 184/11/3 179/11/3 181/11/3
f 184/12/3 181/12/3 183/12/3
f 185/11/3 179/11/3 184/11/3
f 191/3/3 187/3/3 186/3/3
f 192/11/3 190/11/3 189/11/3
f 193/3/3 191/3/3 190/3/3
f 193/11/3 190/11/3 192/11/3
f 194/3/3 187/3/3 191/3/3
f 194/3/3 191/3/3 193/3/3
f 195/11/3 188/11/3 187/11/3
f 195/3/3 187/3/3 194/3/3
f 196/11/3 188/11/3 195/11/3
f 199/6/3 198/6/3 197/6/3
f 200/6/3 198/6/3 199/6/3
f 205/6/3 202/6/3 201/6/3
f 206/6/3 202/6/3 205/6/3
f 207/6/3 204/6/3 203/6/3
f 208/6/3 204/6/3 207/6/3
f 209/6/3 207/6/3 206/6/3
f 210/6/3 207/6/3 209/6/3
f 211/7/3 210/7/3 209/7/3
f 212/7/3 210/7/3 211/7/3
f 213/11/4 214/11/4 217/11/4
f 214/12/4 215/12/4 218/12/4
f 217/11/4 214/11/4 218/11/4
f 215/11/4 216/11/4 219/11/4
f 218/12/4 215/12/4 219/12/4
f 219/11/4 216/11/4 220/11/4
f 221/1/4 222/1/4 223/1/4
f 223/1/4 222/1/4 224/1/4
f 226/3/4 227/3/4 229/3/4
f 229/3/4 227/3/4 230/3/4
f 226/3/4 229/3/4 231/3/4
f 229/9/4 230/9/4 231/9/4
f 230/3/4 227/3/4 232/3/4
f 231/9/4 230/9/4 232/9/4
f 225/11/4 226/11/4 233/11/4
f 226/3/4 231/3/4 234/3/4
f 233/11/4 226/11/4 234/11/4
f 231/3/4 232/3/4 234/3/4
f 234/3/4 232/3/4 235/3/4
f 232/3/4 227/3/4 236/3/4
f 235/3/4 232/3/4 236/3/4
f 227/11/4 228/11/4 236/11/4
f 236/11/4 228/11/4 237/11/4
f 238/11/4 239/11/4 242/11/4
f 240/11/4 241/11/4 242/11/4
f 239/11/4 240/11/4 242/11/4
f 242/11/4 241/11/4 243/11/4
f 244/6/4 245/6/4 248/6/4
f 248/6/4 245/6/4 249/6/4
f 246/6/4 247/6/4 250/6/4
f 250/6/4 247/6/4 251/6/4
f 249/6/4 250/6/4 252/6/4
f 252/6/4 250/6/4 253/6/4
f 252/7/4 253/7/4 254/7/4
f 254/7/4 253/7/4 255/7/4
f 256/6/4 257/6/4 258/6/4
f 258/6/4 257/6/4 259/6/4
f 262/11/5 261/11/5 260/11/5
f 263/11/5 261/11/5 262/11/5
f 267/1/5 265/1/5 264/1/5
f 268/1/5 265/1/5 267/1/5
f 269/5/5 263/5/5 262/5/5
f 272/1/5 268/1/5 267/1/5
f 272/1/5 269/1/5 268/1/5
f 272/1/5 267/1/5 266/1/5
f 273/5/5 263/5/5 269/5/5
f 273/1/5 269/1/5 272/1/5
f 274/5/5 263/5/5 273/5/5
f 275/11/5 271/11/5 270/11/5
f 276/11/5 271/11/5 275/11/5
f 277/11/5 274/11/5 273/11/5
f 277/8/5 273/8/5 272/8/5
f 278/11/5 274/11/5 277/11/5
f 279/11/5 274/11/5 278/11/5
f 280/2/5 276/2/5 275/2/5
f 281/8/5 277/8/5 272/8/5
f 282/8/5 277/8/5 281/8/5
f 283/1/5 282/1/5 281/1/5
f 284/1/5 282/1/5 283/1/5
f 285/11/5 279/11/5 278/11/5
f 285/11/5 280/11/5 279/11/5
f 286/2/5 276/2/5 280/2/5
f 286/11/5 280/11/5 285/11/5
f 287/2/5 276/2/5 286/2/5
f 288/11/5 287/11/5 286/11/5
f 289/11/5 287/11/5 288/11/5
f 292/6/5 291/6/5 290/6/5
f 293/6/5 291/6/5 292/6/5
f 296/8/5 295/8/5 294/8/5
f 297/8/5 295/8/5 296/8/5
f 299/1/5 297/1/5 296/1/5
f 300/1/5 297/1/5 299/1/5
f 302/1/5 299/1/5 298/1/5
f 303/1/5 299/1/5 302/1/5
f 304/1/5 301/1/5 300/1/5
f 305/1/5 301/1/5 304/1/5
f 308/6/5 307/6/5 306/6/5
f 309/6/5 307/6/5 308/6/5
f 313/6/5 310/6/5 309/6/5
f 314/7/5 311/7/5 310/7/5
f 314/6/5 310/6/5 313/6/5
f 315/7/5 311/7/5 314/7/5
f 316/6/5 313/6/5 312/6/5
f 317/6/5 313/6/5 316/6/5
f 318/8/6 319/8/6 320/8/6
f 320/8/6 319/8/6 321/8/6
f 320/1/6 321/1/6 323/1/6
f 323/1/6 321/1/6 324/1/6
f 322/1/6 323/1/6 326/1/6
f 326/1/6 323/1/6 327/1/6
f 324/1/6 325/1/6 328/1/6
f 328/1/6 325/1/6 329/1/6
f 330/6/6 331/6/6 332/6/6
f 332/6/6 331/6/6 333/6/6
f 333/6/6 334/6/6 337/6/6
f 334/7/6 335/7/6 338/7/6
f 337/6/6 334/6/6 338/6/6
f 338/7/6 335/7/6 339/7/6
f 336/6/6 337/6/6 340/6/6
f 340/6/6 337/6/6 341/6/6
f 342/11/6 343/11/6 344/11/6
f 344/11/6 343/11/6 345/11/6
f 344/5/6 345/5/6 348/5/6
f 348/5/6 345/5/6 349/5/6
f 346/1/6 347/1/6 351/1/6
f 351/1/6 347/1/6 352/1/6
f 344/5/6 348/5/6 353/5/6
f 348/7/6 349/7/6 354/7/6
f 353/5/6 348/5/6 354/5/6
f 349/5/6 345/5/6 355/5/6
f 354/7/6 349/7/6 355/7/6
f 355/5/6 345/5/6 356/5/6
f 353/7/6 354/7/6 357/7/6
f 351/1/6 352/1/6 357/1/6
f 352/1/6 353/1/6 357/1/6
f 350/1/6 351/1/6 357/1/6
f 354/5/6 355/5/6 358/5/6
f 357/7/6 354/7/6 358/7/6
f 355/7/6 356/7/6 359/7/6
f 358/5/6 355/5/6 359/5/6
f 359/7/6 356/7/6 360/7/6
f 350/1/6 357/1/6 363/1/6
f 359/5/6 360/5/6 364/5/6
f 363/1/6 357/1/6 364/1/6
f 358/5/6 359/5/6 364/5/6
f 357/5/6 358/5/6 364/5/6
f 364/5/6 360/5/6 365/5/6
f 361/11/6 362/11/6 366/11/6
f 366/11/6 362/11/6 367/11/6
f 364/11/6 365/11/6 368/11/6
f 363/8/6 364/8/6 368/8/6
f 368/11/6 365/11/6 369/11/6
f 369/11/6 365/11/6 370/11/6
f 366/2/6 367/2/6 371/2/6
f 371/2/6 367/2/6 372/2/6
f 372/2/6 367/2/6 373/2/6
f 363/8/6 368/8/6 374/8/6
f 374/8/6 368/8/6 375/8/6
f 372/4/6 373/4/6 376/4/6
f 371/2/6 372/2/6 376/2/6
f 373/2/6 367/2/6 377/2/6
f 376/4/6 373/4/6 377/4/6
f 371/2/6 376/2/6 378/2/6
f 376/10/6 377/10/6 378/10/6
f 377/2/6 367/2/6 379/2/6
f 378/10/6 377/10/6 379/10/6
f 374/1/6 375/1/6 380/1/6
f 380/1/6 375/1/6 381/1/6
f 371/2/6 378/2/6 382/2/6
f 378/2/6 379/2/6 382/2/6
f 379/2/6 367/2/6 383/2/6
f 382/2/6 379/2/6 383/2/6
f 382/11/6 383/11/6 384/11/6
f 384/11/6 383/11/6 385/11/6
f 386/6/6 387/6/6 388/6/6
f 388/6/6 387/6/6 389/6/6
f 390/11/6 391/11/6 392/11/6
f 392/11/6 391/11/6 393/11/6
f 392/12/6 393/12/6 394/12/6
f 393/11/6 391/11/6 395/11/6
f 394/12/6 393/12/6 395/12/6
f 394/11/6 395/11/6 396/11/6
f 395/11/6 391/11/6 397/11/6
f 396/11/6 395/11/6 397/11/6
